<?xml version="1.0" standalone="no"?>
<!DOCTYPE svg PUBLIC "-//W3C//DTD SVG 20010904//EN"
 "http://www.w3.org/TR/2001/REC-SVG-20010904/DTD/svg10.dtd">
<svg version="1.0" xmlns="http://www.w3.org/2000/svg"
 width="527.000000pt" height="571.000000pt" viewBox="0 0 527.000000 571.000000"
 preserveAspectRatio="xMidYMid meet">

<g transform="translate(0.000000,571.000000) scale(0.100000,-0.100000)"
fill="#000000" stroke="none">
<path d="M2356 5228 c-216 -19 -459 -84 -630 -170 -292 -146 -612 -449 -795
-750 -61 -100 -156 -295 -207 -421 -82 -205 -147 -470 -190 -772 -45 -325 41
-842 202 -1213 126 -291 279 -508 486 -688 294 -258 553 -374 948 -426 143
-19 491 -16 630 6 399 61 837 257 1174 526 151 120 326 316 392 439 13 25 39
69 56 96 125 201 180 475 181 910 1 510 -125 973 -364 1330 -119 179 -328 381
-532 518 -163 108 -401 213 -635 278 -67 19 -122 36 -121 39 0 3 20 20 44 38
109 80 94 142 -55 217 -92 47 -339 65 -584 43z m41 -520 c20 -18 66 -36 154
-61 325 -92 555 -207 786 -394 309 -249 487 -566 564 -999 20 -108 23 -165 24
-354 0 -204 -3 -239 -28 -375 -63 -340 -152 -571 -318 -821 -82 -123 -292
-342 -394 -411 -176 -118 -352 -170 -606 -180 -422 -16 -690 97 -946 399 -302
356 -440 779 -437 1343 3 539 94 924 298 1253 179 289 410 502 721 664 l110
57 22 -48 c12 -26 35 -58 50 -73z"/>
<path d="M2005 4276 c-48 -18 -72 -46 -81 -93 -13 -69 10 -91 361 -343 470
-339 624 -461 815 -650 124 -122 186 -201 233 -296 48 -97 53 -122 25 -128
-621 -128 -1080 -366 -1200 -622 -40 -85 -49 -190 -21 -243 30 -57 65 -76 137
-76 90 0 129 28 186 136 51 95 128 183 199 229 62 39 231 107 386 155 493 151
564 184 617 293 31 65 31 182 -1 264 -55 141 -233 370 -481 618 -357 357 -721
639 -948 734 -79 33 -172 42 -227 22z"/>
</g>
</svg>
